<svg xmlns="http://www.w3.org/2000/svg" viewBox="0 0 126 22" width="126px" height="22px" preserveAspectRatio="xMinYMid"><title>star-rating</title><polygon points="7.79 13.39 2.01 9.07 9.2 8.77 11.48 1.91 13.98 8.69 21.17 8.76 15.53 13.27 17.69 20.18 11.71 16.17 5.85 20.37 7.79 13.39" style="fill:#fd9827"/><path d="M11.5,3.42l1.89,5.13.24.65h.69l5.44.05-4.27,3.41-.53.43.2.65L16.79,19l-4.52-3-.58-.39-.56.4L6.71,19.14l1.46-5.28.18-.66-.55-.41L3.43,9.51l5.44-.23.69,0,.22-.65L11.5,3.42m0-3L8.83,8.29.58,8.63l6.63,5L5,21.61l6.72-4.83,6.87,4.61-2.48-7.94,6.47-5.17L14.33,8.2,11.46.39Z" style="fill:#fd9827"/><polygon points="33.79 13.39 28.01 9.07 35.2 8.77 37.48 1.91 39.98 8.69 47.17 8.76 41.53 13.27 43.69 20.18 37.71 16.17 31.85 20.37 33.79 13.39" style="fill:#fd9827"/><path d="M37.5,3.42l1.89,5.13.24.65h.69l5.44.05-4.27,3.41-.53.43.2.65L42.79,19l-4.52-3-.58-.39-.56.4-4.42,3.17,1.46-5.28.18-.66-.55-.41L29.43,9.51l5.44-.23.69,0,.22-.65L37.5,3.42m0-3L34.83,8.29l-8.25.35,6.63,5-2.22,8,6.72-4.83,6.87,4.61-2.48-7.94,6.47-5.17L40.33,8.2,37.46.39Z" style="fill:#fd9827"/><polygon points="59.2 13.39 53.42 9.07 60.61 8.77 62.9 1.91 65.4 8.69 72.59 8.76 66.95 13.27 69.11 20.18 63.12 16.17 57.27 20.37 59.2 13.39" style="fill:#fd9827"/><path d="M62.92,3.42l1.89,5.13.24.65h.69l5.44.05-4.27,3.41-.53.43.2.65L68.21,19l-4.52-3-.58-.39-.56.4-4.42,3.17,1.46-5.28.18-.66-.55-.41L54.85,9.51l5.44-.23.69,0,.22-.65,1.72-5.18m0-3L60.25,8.29,52,8.63l6.63,5-2.22,8,6.72-4.83L70,21.39l-2.48-7.94L74,8.28,65.75,8.2,62.87.39Z" style="fill:#fd9827"/><path d="M88.92,3.42l1.89,5.13.24.65h.69l5.44.05-4.27,3.41-.53.43.2.65L94.21,19l-4.52-3-.58-.39-.56.4-4.42,3.17,1.46-5.28.18-.66-.55-.41L80.85,9.51l5.44-.23.69,0,.22-.65,1.72-5.18m0-3L86.25,8.29,78,8.63l6.63,5-2.22,8,6.72-4.83L96,21.39l-2.48-7.94L100,8.28,91.75,8.2,88.87.39Z" style="fill:#fd9827"/><path d="M89.13,16.78l-6.72,4.83,2.22-8L78,8.63l8.25-.35L88.87.39" style="fill:#fd9827"/><path d="M114.84,3.42l1.89,5.13.24.65h.69l5.44.05-4.27,3.41-.53.43.2.65L120.12,19l-4.52-3-.58-.39-.56.4L110,19.14l1.46-5.28.18-.66-.55-.41-4.38-3.27,5.44-.23.69,0,.22-.65,1.72-5.18m0-3-2.63,7.89-8.25.35,6.63,5-2.22,8L115,16.78l6.87,4.61-2.48-7.94,6.47-5.17-8.25-.08L114.79.39Z" style="fill:#fd9827"/></svg>