<svg xmlns="http://www.w3.org/2000/svg" viewBox="0 0 126 22" width="126px" height="22px" preserveAspectRatio="xMinYMid"><title>star-rating</title><polygon points="7.2 13.39 1.43 9.07 8.61 8.77 10.9 1.91 13.4 8.69 20.59 8.76 14.95 13.27 17.11 20.18 11.12 16.17 5.27 20.37 7.2 13.39" style="fill:#fd9827"/><path d="M10.92,3.42l1.89,5.13.24.65h.69l5.44.05-4.27,3.41-.53.43.2.65L16.21,19l-4.52-3-.58-.39-.56.4L6.13,19.14l1.46-5.28.18-.66-.55-.41L2.85,9.51l5.44-.23.69,0L9.2,8.6l1.72-5.18m0-3L8.25,8.29,0,8.63l6.63,5-2.22,8,6.72-4.83L18,21.39l-2.48-7.94L22,8.28,13.75,8.2,10.87.39Z" style="fill:#fd9827"/><polygon points="33.2 13.39 27.43 9.07 34.61 8.77 36.9 1.91 39.4 8.69 46.59 8.76 40.95 13.27 43.11 20.18 37.12 16.17 31.27 20.37 33.2 13.39" style="fill:#fd9827"/><path d="M36.92,3.42l1.89,5.13.24.65h.69l5.44.05-4.27,3.41-.53.43.2.65L42.21,19l-4.52-3-.58-.39-.56.4-4.42,3.17,1.46-5.28.18-.66-.55-.41L28.85,9.51l5.44-.23.69,0,.22-.65,1.72-5.18m0-3L34.25,8.29,26,8.63l6.63,5-2.22,8,6.72-4.83L44,21.39l-2.48-7.94L48,8.28,39.75,8.2,36.87.39Z" style="fill:#fd9827"/><path d="M114.92,3.42l1.89,5.13.24.65h.69l5.44.05-4.27,3.41-.53.43.2.65L120.21,19l-4.52-3-.58-.39-.56.4-4.42,3.17,1.46-5.28.18-.66-.55-.41-4.38-3.27,5.44-.23.69,0,.22-.65,1.72-5.18m0-3-2.63,7.89L104,8.63l6.63,5-2.22,8,6.72-4.83L122,21.39l-2.48-7.94L126,8.28l-8.25-.08L114.87.39Z" style="fill:#fd9827"/><path d="M88.92,3.42l1.89,5.13.24.65h.69l5.44.05-4.27,3.41-.53.43.2.65L94.21,19l-4.52-3-.58-.39-.56.4-4.42,3.17,1.46-5.28.18-.66-.55-.41L80.85,9.51l5.44-.23.69,0,.22-.65,1.72-5.18m0-3L86.25,8.29,78,8.63l6.63,5-2.22,8,6.72-4.83L96,21.39l-2.48-7.94L100,8.28,91.75,8.2,88.87.39Z" style="fill:#fd9827"/><path d="M62.92,3.42l1.89,5.13.24.65h.69l5.44.05-4.27,3.41-.53.43.2.65L68.21,19l-4.52-3-.58-.39-.56.4-4.42,3.17,1.46-5.28.18-.66-.55-.41L54.85,9.51l5.44-.23.69,0,.22-.65,1.72-5.18m0-3L60.25,8.29,52,8.63l6.63,5-2.22,8,6.72-4.83L70,21.39l-2.48-7.94L74,8.28,65.75,8.2,62.87.39Z" style="fill:#fd9827"/></svg>